<svg width="93" height="32" viewBox="0 0 93 32" fill="none" xmlns="http://www.w3.org/2000/svg">
<rect width="93" height="32" rx="5" fill="#0A8D68"/>
<path d="M40.7637 21L43.9438 16.144L41.062 11.6943H43.2583L45.1245 14.6841L46.9526 11.6943H49.1299L46.2354 16.2139L49.4155 21H47.1494L45.0864 17.7817L43.0171 21H40.7637ZM54.2715 18.8545L56.0488 19.1528C55.8203 19.8045 55.4585 20.3018 54.9634 20.6445C54.4725 20.9831 53.8568 21.1523 53.1162 21.1523C51.944 21.1523 51.0765 20.7694 50.5137 20.0034C50.0693 19.3898 49.8472 18.6154 49.8472 17.6802C49.8472 16.563 50.1392 15.6891 50.7231 15.0586C51.3071 14.4238 52.0456 14.1064 52.9385 14.1064C53.9414 14.1064 54.7327 14.4386 55.3125 15.103C55.8923 15.7632 56.1694 16.7767 56.144 18.1436H51.6753C51.688 18.6725 51.8319 19.0851 52.1069 19.3813C52.382 19.6733 52.7248 19.8193 53.1353 19.8193C53.4146 19.8193 53.6494 19.7432 53.8398 19.5908C54.0303 19.4385 54.1742 19.193 54.2715 18.8545ZM54.373 17.0518C54.3604 16.5355 54.2271 16.144 53.9731 15.8774C53.7192 15.6066 53.4103 15.4712 53.0464 15.4712C52.6571 15.4712 52.3354 15.613 52.0815 15.8965C51.8276 16.18 51.7028 16.5651 51.707 17.0518H54.373ZM57.4707 14.2588H59.1147V15.1792C59.703 14.464 60.4033 14.1064 61.2158 14.1064C61.6475 14.1064 62.022 14.1953 62.3394 14.373C62.6567 14.5508 62.917 14.8195 63.1201 15.1792C63.4163 14.8195 63.7358 14.5508 64.0786 14.373C64.4214 14.1953 64.7874 14.1064 65.1768 14.1064C65.6719 14.1064 66.0908 14.208 66.4336 14.4111C66.7764 14.61 67.0324 14.9041 67.2017 15.2935C67.3244 15.5812 67.3857 16.0467 67.3857 16.6899V21H65.6021V17.147C65.6021 16.4784 65.5407 16.0467 65.418 15.8521C65.2529 15.5981 64.999 15.4712 64.6562 15.4712C64.4066 15.4712 64.1717 15.5474 63.9517 15.6997C63.7316 15.8521 63.5729 16.0763 63.4756 16.3726C63.3783 16.6646 63.3296 17.1279 63.3296 17.7627V21H61.5459V17.3057C61.5459 16.6497 61.5142 16.2266 61.4507 16.0361C61.3872 15.8457 61.2878 15.7039 61.1523 15.6108C61.0212 15.5177 60.8413 15.4712 60.6128 15.4712C60.3377 15.4712 60.0902 15.5452 59.8701 15.6934C59.6501 15.8415 59.4914 16.0552 59.394 16.3345C59.3009 16.6138 59.2544 17.0771 59.2544 17.7246V21H57.4707V14.2588Z" fill="white" fill-opacity="0.9"/>
<path fill-rule="evenodd" clip-rule="evenodd" d="M19.2488 17C19.3125 17.1049 19.397 17.2386 19.5018 17.393C19.7707 17.7896 20.1689 18.317 20.686 18.8423C21.7307 19.9036 23.1914 20.8889 25.0001 20.8889C26.8087 20.8889 28.2694 19.9036 29.3141 18.8423C29.8312 18.317 30.2294 17.7896 30.4983 17.393C30.6031 17.2386 30.6876 17.1049 30.7513 17C30.6876 16.8951 30.6031 16.7614 30.4983 16.607C30.2294 16.2104 29.8312 15.683 29.3141 15.1577C28.2694 14.0964 26.8087 13.1111 25.0001 13.1111C23.1914 13.1111 21.7307 14.0964 20.686 15.1577C20.1689 15.683 19.7707 16.2104 19.5018 16.607C19.397 16.7614 19.3125 16.8951 19.2488 17ZM31.4168 17C31.9385 16.7515 31.9384 16.7514 31.9383 16.7512L31.9374 16.7494L31.9354 16.7456L31.9287 16.7332C31.9232 16.7229 31.9153 16.7085 31.9052 16.6902C31.8849 16.6537 31.8554 16.6018 31.817 16.5367C31.7401 16.4065 31.6269 16.2231 31.4784 16.0042C31.1822 15.5674 30.7419 14.9837 30.1652 14.3978C29.0225 13.2369 27.2748 12 25.0001 12C22.7253 12 20.9776 13.2369 19.8349 14.3978C19.2582 14.9837 18.8179 15.5674 18.5217 16.0042C18.3732 16.2231 18.26 16.4065 18.1832 16.5367C18.1447 16.6018 18.1152 16.6537 18.0949 16.6902C18.0848 16.7085 18.0769 16.7229 18.0714 16.7332L18.0647 16.7456L18.0627 16.7494L18.062 16.7507C18.0619 16.7509 18.0616 16.7515 18.5833 17L18.0616 16.7515C17.9795 16.908 17.9795 17.092 18.0616 17.2485L18.5833 17C18.0616 17.2485 18.0615 17.2482 18.0616 17.2485L18.0627 17.2506L18.0647 17.2544L18.0714 17.2668C18.0769 17.2771 18.0848 17.2915 18.0949 17.3098C18.1152 17.3463 18.1447 17.3982 18.1832 17.4633C18.26 17.5935 18.3732 17.7769 18.5217 17.9958C18.8179 18.4326 19.2582 19.0163 19.8349 19.6022C20.9776 20.7631 22.7253 22 25.0001 22C27.2748 22 29.0225 20.7631 30.1652 19.6022C30.7419 19.0163 31.1822 18.4326 31.4784 17.9958C31.6269 17.7769 31.7401 17.5935 31.817 17.4633C31.8554 17.3982 31.8849 17.3463 31.9052 17.3098C31.9153 17.2915 31.9232 17.2771 31.9287 17.2668L31.9354 17.2544L31.9374 17.2506L31.9381 17.2493C31.9382 17.2491 31.9385 17.2485 31.4168 17ZM31.4168 17L31.9385 17.2485C32.0206 17.092 32.0204 16.9076 31.9383 16.7512L31.4168 17ZM25.0001 15.8889C24.3557 15.8889 23.8334 16.3864 23.8334 17C23.8334 17.6136 24.3557 18.1111 25.0001 18.1111C25.6444 18.1111 26.1667 17.6136 26.1667 17C26.1667 16.3864 25.6444 15.8889 25.0001 15.8889ZM22.6667 17C22.6667 15.7727 23.7114 14.7778 25.0001 14.7778C26.2887 14.7778 27.3334 15.7727 27.3334 17C27.3334 18.2273 26.2887 19.2222 25.0001 19.2222C23.7114 19.2222 22.6667 18.2273 22.6667 17Z" fill="white" fill-opacity="0.9"/>
</svg>
