<svg width="80" height="32" viewBox="0 0 80 32" fill="none" xmlns="http://www.w3.org/2000/svg">
<path d="M75.6989 0H4.30108C1.92566 0 0 2.23858 0 5V27C0 29.7614 1.92566 32 4.30108 32H75.6989C78.0743 32 80 29.7614 80 27V5C80 2.23858 78.0743 0 75.6989 0Z" fill="#0A8D68" fill-opacity="0.1"/>
<path d="M34.7637 21L37.9438 16.144L35.062 11.6943H37.2583L39.1245 14.6841L40.9526 11.6943H43.1299L40.2354 16.2139L43.4155 21H41.1494L39.0864 17.7817L37.0171 21H34.7637ZM48.2715 18.8545L50.0488 19.1528C49.8203 19.8045 49.4585 20.3018 48.9634 20.6445C48.4725 20.9831 47.8568 21.1523 47.1162 21.1523C45.944 21.1523 45.0765 20.7694 44.5137 20.0034C44.0693 19.3898 43.8472 18.6154 43.8472 17.6802C43.8472 16.563 44.1392 15.6891 44.7231 15.0586C45.3071 14.4238 46.0456 14.1064 46.9385 14.1064C47.9414 14.1064 48.7327 14.4386 49.3125 15.103C49.8923 15.7632 50.1694 16.7767 50.144 18.1436H45.6753C45.688 18.6725 45.8319 19.0851 46.1069 19.3813C46.382 19.6733 46.7248 19.8193 47.1353 19.8193C47.4146 19.8193 47.6494 19.7432 47.8398 19.5908C48.0303 19.4385 48.1742 19.193 48.2715 18.8545ZM48.373 17.0518C48.3604 16.5355 48.2271 16.144 47.9731 15.8774C47.7192 15.6066 47.4103 15.4712 47.0464 15.4712C46.6571 15.4712 46.3354 15.613 46.0815 15.8965C45.8276 16.18 45.7028 16.5651 45.707 17.0518H48.373ZM51.4707 14.2588H53.1147V15.1792C53.703 14.464 54.4033 14.1064 55.2158 14.1064C55.6475 14.1064 56.022 14.1953 56.3394 14.373C56.6567 14.5508 56.917 14.8195 57.1201 15.1792C57.4163 14.8195 57.7358 14.5508 58.0786 14.373C58.4214 14.1953 58.7874 14.1064 59.1768 14.1064C59.6719 14.1064 60.0908 14.208 60.4336 14.4111C60.7764 14.61 61.0324 14.9041 61.2017 15.2935C61.3244 15.5812 61.3857 16.0467 61.3857 16.6899V21H59.6021V17.147C59.6021 16.4784 59.5407 16.0467 59.418 15.8521C59.2529 15.5981 58.999 15.4712 58.6562 15.4712C58.4066 15.4712 58.1717 15.5474 57.9517 15.6997C57.7316 15.8521 57.5729 16.0763 57.4756 16.3726C57.3783 16.6646 57.3296 17.1279 57.3296 17.7627V21H55.5459V17.3057C55.5459 16.6497 55.5142 16.2266 55.4507 16.0361C55.3872 15.8457 55.2878 15.7039 55.1523 15.6108C55.0212 15.5177 54.8413 15.4712 54.6128 15.4712C54.3377 15.4712 54.0902 15.5452 53.8701 15.6934C53.6501 15.8415 53.4914 16.0552 53.394 16.3345C53.3009 16.6138 53.2544 17.0771 53.2544 17.7246V21H51.4707V14.2588Z" fill="#0A8D68" fill-opacity="0.9"/>
<path fill-rule="evenodd" clip-rule="evenodd" d="M16.2488 17C16.3125 17.1049 16.397 17.2386 16.5018 17.393C16.7707 17.7896 17.1689 18.317 17.686 18.8423C18.7307 19.9036 20.1914 20.8889 22.0001 20.8889C23.8087 20.8889 25.2694 19.9036 26.3141 18.8423C26.8312 18.317 27.2294 17.7896 27.4983 17.393C27.6031 17.2386 27.6876 17.1049 27.7513 17C27.6876 16.8951 27.6031 16.7614 27.4983 16.607C27.2294 16.2104 26.8312 15.683 26.3141 15.1577C25.2694 14.0964 23.8087 13.1111 22.0001 13.1111C20.1914 13.1111 18.7307 14.0964 17.686 15.1577C17.1689 15.683 16.7707 16.2104 16.5018 16.607C16.397 16.7614 16.3125 16.8951 16.2488 17ZM28.4168 17C28.9385 16.7515 28.9384 16.7514 28.9383 16.7512L28.9374 16.7494L28.9354 16.7456L28.9287 16.7332C28.9232 16.7229 28.9153 16.7085 28.9052 16.6902C28.8849 16.6537 28.8554 16.6018 28.817 16.5367C28.7401 16.4065 28.6269 16.2231 28.4784 16.0042C28.1822 15.5674 27.7419 14.9837 27.1652 14.3978C26.0225 13.2369 24.2748 12 22.0001 12C19.7253 12 17.9776 13.2369 16.8349 14.3978C16.2582 14.9837 15.8179 15.5674 15.5217 16.0042C15.3732 16.2231 15.26 16.4065 15.1832 16.5367C15.1447 16.6018 15.1152 16.6537 15.0949 16.6902C15.0848 16.7085 15.0769 16.7229 15.0714 16.7332L15.0647 16.7456L15.0627 16.7494L15.062 16.7507C15.0619 16.7509 15.0616 16.7515 15.5833 17L15.0616 16.7515C14.9795 16.908 14.9795 17.092 15.0616 17.2485L15.5833 17C15.0616 17.2485 15.0615 17.2482 15.0616 17.2485L15.0627 17.2506L15.0647 17.2544L15.0714 17.2668C15.0769 17.2771 15.0848 17.2915 15.0949 17.3098C15.1152 17.3463 15.1447 17.3982 15.1832 17.4633C15.26 17.5935 15.3732 17.7769 15.5217 17.9958C15.8179 18.4326 16.2582 19.0163 16.8349 19.6022C17.9776 20.7631 19.7253 22 22.0001 22C24.2748 22 26.0225 20.7631 27.1652 19.6022C27.7419 19.0163 28.1822 18.4326 28.4784 17.9958C28.6269 17.7769 28.7401 17.5935 28.817 17.4633C28.8554 17.3982 28.8849 17.3463 28.9052 17.3098C28.9153 17.2915 28.9232 17.2771 28.9287 17.2668L28.9354 17.2544L28.9374 17.2506L28.9381 17.2493C28.9382 17.2491 28.9385 17.2485 28.4168 17ZM28.4168 17L28.9385 17.2485C29.0206 17.092 29.0204 16.9076 28.9383 16.7512L28.4168 17ZM22.0001 15.8889C21.3557 15.8889 20.8334 16.3864 20.8334 17C20.8334 17.6136 21.3557 18.1111 22.0001 18.1111C22.6444 18.1111 23.1667 17.6136 23.1667 17C23.1667 16.3864 22.6444 15.8889 22.0001 15.8889ZM19.6667 17C19.6667 15.7727 20.7114 14.7778 22.0001 14.7778C23.2887 14.7778 24.3334 15.7727 24.3334 17C24.3334 18.2273 23.2887 19.2222 22.0001 19.2222C20.7114 19.2222 19.6667 18.2273 19.6667 17Z" fill="#0A8D68" fill-opacity="0.9"/>
</svg>
